#define simpson_width 64
#define simpson_height 55
static unsigned char simpson_bits[] = {
   0x00, 0x00, 0x00, 0x00, 0x00, 0x00, 0x00, 0x00, 0x00, 0x00, 0x00, 0x00,
   0x00, 0x00, 0x00, 0x00, 0x00, 0x00, 0x00, 0x00, 0x00, 0x00, 0x00, 0x00,
   0x00, 0x00, 0x80, 0x18, 0x01, 0x00, 0x00, 0x00, 0x00, 0x00, 0xc8, 0xbd,
   0x33, 0x00, 0x00, 0x00, 0x00, 0x00, 0xfc, 0xff, 0x3f, 0x03, 0x00, 0x00,
   0x00, 0x00, 0xfc, 0xff, 0xff, 0x07, 0x00, 0x00, 0x00, 0x00, 0x7e, 0x67,
   0xfe, 0x3f, 0x00, 0x00, 0x00, 0x00, 0x2e, 0x00, 0xe0, 0xff, 0x01, 0x00,
   0x00, 0x00, 0x0e, 0x00, 0x00, 0xfe, 0x03, 0x00, 0x00, 0x00, 0x06, 0x00,
   0x00, 0xf0, 0x1f, 0x00, 0x00, 0x00, 0x06, 0x00, 0x00, 0xe0, 0x1f, 0x00,
   0x00, 0x00, 0x06, 0x00, 0x00, 0x00, 0x1f, 0x00, 0x00, 0x00, 0x07, 0x00,
   0x00, 0x00, 0x0c, 0x00, 0x00, 0x00, 0x07, 0x00, 0x00, 0x00, 0x0e, 0x00,
   0x00, 0x00, 0x07, 0x00, 0x00, 0x00, 0x0e, 0x00, 0x00, 0x00, 0x03, 0x00,
   0x00, 0x00, 0x06, 0x00, 0x00, 0x00, 0x03, 0x00, 0x00, 0x00, 0x07, 0x00,
   0x00, 0x80, 0x03, 0x00, 0x00, 0x00, 0x07, 0x00, 0x00, 0x80, 0x03, 0x00,
   0x00, 0x00, 0x03, 0x00, 0x00, 0xc0, 0x01, 0x00, 0x00, 0x80, 0x03, 0x00,
   0x00, 0xc0, 0x7f, 0xe0, 0x0f, 0x80, 0x03, 0x00, 0x00, 0xc0, 0xff, 0xf9,
   0x3f, 0x80, 0x01, 0x00, 0x00, 0xe0, 0xc1, 0x3f, 0x78, 0xc0, 0x01, 0x00,
   0x00, 0x70, 0x00, 0x0f, 0xe0, 0xc0, 0x01, 0x00, 0x00, 0x70, 0x00, 0x06,
   0xe0, 0xc0, 0x00, 0x00, 0x00, 0x30, 0x00, 0x07, 0xc0, 0xe0, 0x00, 0x00,
   0x00, 0x38, 0x10, 0x07, 0xc0, 0xe1, 0x00, 0x00, 0x00, 0x38, 0x38, 0x07,
   0xc2, 0x61, 0x00, 0x00, 0x00, 0x30, 0x00, 0x07, 0xc3, 0x60, 0x00, 0x00,
   0x00, 0x70, 0x00, 0x0f, 0xe0, 0x70, 0x00, 0x00, 0x00, 0xe0, 0xf8, 0x1f,
   0x70, 0x70, 0x00, 0x00, 0x00, 0xc0, 0xff, 0x7f, 0x7c, 0x30, 0x00, 0x00,
   0x00, 0xc0, 0x1f, 0xf8, 0x1f, 0x30, 0x00, 0x00, 0x00, 0xc0, 0xff, 0xc0,
   0x07, 0x38, 0x00, 0x00, 0x00, 0xc0, 0xf9, 0x00, 0x00, 0x3c, 0x00, 0x00,
   0x00, 0xe0, 0x00, 0x00, 0x00, 0xfc, 0x00, 0x00, 0x00, 0xe0, 0x00, 0x00,
   0x00, 0xe0, 0x00, 0x00, 0x00, 0x60, 0x00, 0x00, 0x00, 0xc0, 0x00, 0x00,
   0x00, 0x60, 0x00, 0x00, 0x00, 0xe6, 0x00, 0x00, 0x00, 0xe0, 0x01, 0x00,
   0x04, 0xfe, 0x00, 0x00, 0x00, 0xc0, 0x07, 0x00, 0x0e, 0x3e, 0x00, 0x00,
   0x00, 0x00, 0xff, 0xf0, 0x1f, 0x0c, 0x00, 0x00, 0x00, 0x00, 0xfc, 0xff,
   0x3f, 0x0e, 0x00, 0x00, 0x00, 0x00, 0xc0, 0x7f, 0x30, 0x0e, 0x00, 0x00,
   0x00, 0x00, 0x80, 0x03, 0x00, 0x06, 0x00, 0x00, 0x00, 0x00, 0x80, 0x0f,
   0x00, 0x06, 0x00, 0x00, 0x00, 0x00, 0x00, 0x1e, 0x00, 0x06, 0x00, 0x00,
   0x00, 0x00, 0x00, 0x18, 0x00, 0x07, 0x00, 0x00, 0x00, 0x00, 0x00, 0x18,
   0xf8, 0x07, 0x00, 0x00, 0x00, 0x00, 0x00, 0x18, 0xfc, 0x03, 0x00, 0x00,
   0x00, 0x00, 0x00, 0x00, 0x00, 0x00, 0x00, 0x00, 0x00, 0x00, 0x00, 0x00,
   0x00, 0x00, 0x00, 0x00, 0x00, 0x00, 0x00, 0x00, 0x00, 0x00, 0x00, 0x00,
   0x00, 0x00, 0x00, 0x00, 0x00, 0x00, 0x00, 0x00 };
